<?xml version="1.0" encoding="utf-8"?>
<!-- Generator: Adobe Illustrator 16.0.2, SVG Export Plug-In . SVG Version: 6.00 Build 0)  -->
<!DOCTYPE svg PUBLIC "-//W3C//DTD SVG 1.1//EN" "http://www.w3.org/Graphics/SVG/1.1/DTD/svg11.dtd">
<svg version="1.1" id="Layer_1" xmlns="http://www.w3.org/2000/svg" xmlns:xlink="http://www.w3.org/1999/xlink" x="0px" y="0px"
	 width="1652px" height="428px" viewBox="0 0 1652 428" enable-background="new 0 0 1652 428" xml:space="preserve">
<rect x="-0.097" fill="#252935" width="1647.604" height="428"/>
<g>
	<g>
		<path fill="#252935" d="M381.044,251.517c0.042,14.998,3.582,27.482,11.206,38.699c19.08,28.068,55.727,30.943,78.119,6.178
			c21.743-24.047,21.39-63.609-0.778-87.226c-20.146-21.464-51.751-21.468-71.769,0.086
			C386.395,221.558,381.353,236.384,381.044,251.517z"/>
		<path fill="#3D30A1" d="M1373.171,427.905c-0.393-4.574-2.678-8.549-4.115-12.783c-36.536-107.691-35.405-214.923,4.241-321.555
			c11.542-31.04,27.093-60.093,45.991-87.33c1.287-1.854,3.231-3.485,2.883-6.143c163.5,0,327,0.015,490.5-0.094
			c3.749-0.003,4.599,0.844,4.594,4.592c-0.109,139.605-0.109,279.209,0,418.815c0.005,3.748-0.845,4.596-4.594,4.592
			C1732.838,427.892,1553.004,427.905,1373.171,427.905z"/>
		<path fill="#AF5EFD" d="M1072.949-2.063c0.591,1.147,0.19,2.301-0.066,3.411c-13.607,58.612-42.068,108.077-90.77,144.491
			c-78.83,58.944-183.643,51.219-254.748-18.32c-35.818-35.031-57.959-77.57-69.052-126.135c-0.256-1.119-0.249-2.298-0.364-3.447
			C796.282-2.063,934.616-2.063,1072.949-2.063z"/>
		<path fill="#3D30A1" d="M212.104-1.969c-0.485,7.871-2.776,15.369-5,22.843C191.29,74.034,162.459,118,115.25,148.451
			c-35.032,22.596-73.461,32.151-115.146,27.502c0-57.9,0.044-115.801-0.104-173.7C-0.009-1.41,0.827-2.07,4.371-2.063
			C73.615-1.938,142.859-1.969,212.104-1.969z"/>
		<path fill="#3D30A1" d="M472.146,429.97c19.415-18.59,41.469-33.396,65.595-45.082c35.399-17.148,72.881-25.605,112.186-24.412
			c56.552,1.713,106.599,21.404,150.687,56.582c5.066,4.043,10.277,7.947,14.531,12.91
			C700.813,429.97,586.479,429.97,472.146,429.97z"/>
		<path fill="#AF5DFC" d="M1041.65,429.97c0.045-0.807-0.121-1.695,0.165-2.402c13.701-33.857,36.686-57.271,74.253-61.738
			c31.871-3.787,56.91,10.025,76.302,34.711c6.903,8.787,12.438,18.453,15.28,29.43C1152.317,429.97,1096.983,429.97,1041.65,429.97
			z"/>
		<path fill="#AE5DFC" d="M287.274,191.424c0.332-15.133,5.719-29.959,17.931-42.263c21.394-21.554,55.169-21.55,76.701-0.086
			c23.691,23.616,24.068,63.179,0.831,87.226c-23.931,24.768-63.096,21.891-83.487-6.178
			C291.101,218.908,287.319,206.422,287.274,191.424z"/>
	</g>
</g>
</svg>
